<svg xmlns="http://www.w3.org/2000/svg" width="300" height="300"><defs><linearGradient id="a" x1="150" x2="150" y1="0" y2="300" gradientUnits="userSpaceOnUse"><stop offset="0%" stop-color="#3BF68E"/><stop offset="100%" stop-color="#2bbd5eff"/></linearGradient></defs><path fill="url(#a)" d="M582 30c166 0 221 192 163 297-89 163-361 336-361 336S111 490 23 327C-35 222 19 30 186 30c154 0 193 133 198 153 5-20 44-153 198-153" transform="matrix(.2 0 0 .2 75 75)"/><path fill="url(#a)" fill-rule="evenodd" d="M0 0h300v150a150 150 0 0 1-300 0Zm30 30h240v120a120 120 0 0 1-240 0Z"/></svg>