<svg xmlns="http://www.w3.org/2000/svg" viewBox="0 0 530 530"><defs><linearGradient id="a" x1="0" x2="400" y1="0" y2="400" gradientUnits="userSpaceOnUse"><stop offset="0%" stop-color="#CD163E"/><stop offset="100%" stop-color="#cd1638ff"/></linearGradient></defs><path fill="url(#a)" d="M140 480c0-20 64-64 64-144 0-48-16-64-20-72s0-16 60-80 48-64 72-56c0 0 32 32 100 32s96-64 104-64 8 88-8 144-48 120-104 160-168 80-268 80"/><rect width="60" height="420" x="200" y="-210" fill="url(#a)" rx="30" ry="30" transform="rotate(45 0 0)"/><rect width="120" height="40" y="40" fill="url(#a)" rx="5"/><rect width="40" height="120" x="40" fill="url(#a)" rx="5"/></svg>