<svg xmlns="http://www.w3.org/2000/svg" width="200" height="200" viewBox="0 0 512 512">
    <path fill="#ef244b" d="M169.57 106.12c-1.882-14.48-28.184-30.424-41.092-30.424c-2.54 0-4.56.612-5.773 1.974c-21.81 24.385 14.225 81.262 14.225 81.262s35.746-28.785 32.64-52.812zm128.832 60.524s34.315-54.186 13.544-77.36c-1.155-1.292-3.083-1.88-5.496-1.88c-12.308 0-37.352 15.183-39.142 28.98c-2.967 22.78 31.094 50.26 31.094 50.26zm-53.724-50.352c-1.79-13.798-26.845-28.98-39.14-28.98c-2.414 0-4.343.588-5.497 1.88c-20.782 23.22 13.544 77.36 13.544 77.36s34.06-27.387 31.094-50.26zM58.128 58.896a16.546 16.546 0 0 0-1.664.08c-87.75 8.937 11.373 286.056 40.55 304.484c0 0-16.984-151.636 2.795-244.236c7.238-34.107-24.006-60.328-41.683-60.328zm397.394.08a16.465 16.465 0 0 0-1.663-.08c-17.678 0-48.968 26.198-41.682 60.328c19.778 92.6 2.794 244.236 2.794 244.236c29.223-18.416 128.312-295.535 40.55-304.483zm-72.013 16.72c-12.92 0-39.258 15.945-41.094 30.424c-3.106 23.97 32.652 52.823 32.652 52.823s36.024-56.888 14.225-81.26c-1.224-1.375-3.244-1.987-5.784-1.987zm" class="cls-2"/>
</svg>